<svg width="1920" height="1080" viewBox="0 0 1920 1080" fill="none" xmlns="http://www.w3.org/2000/svg">
<rect width="1920" height="1080" fill="#D9D9D9"/>
<path d="M48.875 629V450.25H121.375C157.875 450.25 176.125 466.208 176.125 498.125C176.125 532.875 151.167 554.083 101.25 561.75L96.5 542.25C133.167 536.833 151.5 522.458 151.5 499.125C151.5 479.292 140.75 469.375 119.25 469.375H72V629H48.875ZM230 450.25V610.25H323.5V629H206.875V450.25H230ZM357 629H333L408.875 450.25H434.5L510.75 629H485.125L462 572.75H402.875L409.25 554H454.25L420.875 473L357 629ZM670.125 622.75C654.708 627.75 638.042 630.25 620.125 630.25C557.625 630.25 526.375 599.208 526.375 537.125C526.375 478.375 557.625 449 620.125 449C638.042 449 654.708 451.5 670.125 456.5V476.5C654.708 470.667 638.875 467.75 622.625 467.75C573.875 467.75 549.5 490.875 549.5 537.125C549.5 586.708 573.875 611.5 622.625 611.5C638.875 611.5 654.708 608.583 670.125 602.75V622.75ZM825.25 450.25V469H731.5V529H820.875V547.75H731.5V610.25H827.125V629H708.375V450.25H825.25ZM862.125 629V450.25H885.25V529H990.875V450.25H1014V629H990.875V547.75H885.25V629H862.125ZM1074.75 539.125C1074.75 587.375 1096.54 611.5 1140.12 611.5C1182.79 611.5 1204.12 587.375 1204.12 539.125C1204.12 491.542 1182.79 467.75 1140.12 467.75C1096.54 467.75 1074.75 491.542 1074.75 539.125ZM1050.38 539.875C1050.38 479.292 1080.29 449 1140.12 449C1199.04 449 1228.5 479.292 1228.5 539.875C1228.5 600.125 1199.04 630.25 1140.12 630.25C1080.29 630.25 1050.38 600.125 1050.38 539.875ZM1288 450.25V610.25H1381.5V629H1264.88V450.25H1288ZM1474.12 610.25C1517.88 610.25 1539.75 585.083 1539.75 534.75C1539.75 490.917 1517.88 469 1474.12 469H1432.25V610.25H1474.12ZM1409.12 629V450.25H1474.12C1533.29 450.25 1562.88 478.417 1562.88 534.75C1562.88 597.583 1533.29 629 1474.12 629H1409.12ZM1713.5 450.25V469H1619.75V529H1709.12V547.75H1619.75V610.25H1715.38V629H1596.62V450.25H1713.5ZM1750.38 629V450.25H1826.62C1860.62 450.25 1877.62 464.542 1877.62 493.125C1877.62 516.375 1861 533.583 1827.75 544.75L1889.12 629H1858.62L1801.75 548.625V533.5C1835.92 528.083 1853 514.958 1853 494.125C1853 477.625 1843.5 469.375 1824.5 469.375H1773.5V629H1750.38Z" fill="black"/>
</svg>
